<svg class="path" width="174" height="52" viewBox="0 0 174 52" fill="none" xmlns="http://www.w3.org/2000/svg">
<g clip-path="url(#clip0)">
<path d="M37.4197 50.2336C37.7494 49.5876 38.1416 48.3084 38.5059 46.7952C38.8919 45.1915 39.2614 43.2605 39.5008 41.3909C39.5008 41.3903 39.5009 41.3897 39.501 41.3892L39.5522 41.0103L38.619 40.7017C37.9821 41.8553 37.1712 42.9017 36.2155 43.8034L36.0741 43.9367L36.0599 44.1306C35.9933 45.0417 35.7918 46.2195 35.5708 47.3915C35.5054 47.7386 35.4381 48.086 35.3725 48.4245C35.2202 49.2106 35.0771 49.9486 34.9885 50.524C34.9691 50.6339 34.9576 50.7449 34.9538 50.856C33.7667 51.0649 32.5641 51.1725 31.3591 51.1776C31.3029 50.3058 31.2538 49.4955 31.2172 48.8743C31.1957 48.5092 31.1785 48.2095 31.1667 48.0012L31.1531 47.7604L31.1496 47.6974L31.1487 47.6814L31.1485 47.6774L31.1484 47.6764L31.1484 47.6761L30.6492 47.7035L31.1484 47.676L31.1315 47.3684L30.8491 47.2452C29.4491 46.6346 28.1022 45.9067 26.8225 45.0694L25.8104 44.4072L26.0595 45.5908C26.4488 47.4408 26.8831 49.1984 27.3175 50.8181C23.8731 50.1782 20.6306 48.7003 17.8737 46.5074C14.9147 44.1538 12.6184 41.0587 11.2142 37.5302C9.8099 34.0018 9.34684 30.1634 9.87131 26.398C10.3958 22.6325 11.8894 19.0718 14.2028 16.0706C16.5162 13.0695 19.5686 10.7328 23.0555 9.29301C26.5423 7.85318 30.3421 7.36031 34.0763 7.86334C37.8105 8.36637 41.3492 9.84782 44.3397 12.1605C47.3302 14.4731 49.668 17.5363 51.1198 21.045C52.3186 23.9626 52.874 27.1084 52.7476 30.2643C52.6211 33.4206 51.8157 36.5112 50.3872 39.3218C48.9588 42.1325 46.9416 44.5957 44.4758 46.5411C42.3674 48.2045 39.9741 49.4552 37.4197 50.2336ZM50.6666 24.5033L50.8156 24.3564V24.2898C51.138 23.792 51.3844 23.2479 51.5462 22.6758L51.6003 22.4844L51.5082 22.3082C51.0289 21.3906 50.493 20.5041 49.9037 19.654C49.7737 19.4561 49.2616 18.8001 48.7723 18.179C48.473 17.7991 48.1739 17.4217 47.9473 17.1359C47.7924 16.9406 47.6715 16.7881 47.6075 16.7067C47.4877 16.5377 47.3288 16.4 47.144 16.3056C46.9541 16.2086 46.743 16.1605 46.5298 16.166L46.5226 16.1662L46.5154 16.1666C44.2853 16.2875 42.0932 16.7862 40.0305 17.6397V17.6397V17.6366V17.6334V17.6303V17.6272V17.6241V17.621V17.6179V17.6148V17.6117V17.6086V17.6055V17.6024V17.5993V17.5962V17.5931V17.59V17.5869V17.5838V17.5806V17.5775V17.5744V17.5713V17.5682V17.5651V17.562V17.5589V17.5558V17.5527V17.5496V17.5465V17.5434V17.5403V17.5372V17.5341V17.531V17.5279V17.5247V17.5216V17.5185V17.5154V17.5123V17.5092V17.5061V17.503V17.4999V17.4968V17.4937V17.4906V17.4875V17.4844V17.4813V17.4782V17.4751V17.4719V17.4688V17.4657V17.4626V17.4595V17.4564V17.4533V17.4502V17.4471V17.444V17.4409V17.4378V17.4347V17.4316V17.4285V17.4254V17.4223V17.4192V17.416V17.4129V17.4098V17.4067V17.4036V17.4005V17.3974V17.3943V17.3912V17.3881V17.385V17.3819V17.3788V17.3757V17.3726V17.3695V17.3664V17.3632V17.3601V17.357V17.3539V17.3508V17.3477V17.3446V17.3415V17.3384V17.3353V17.3322V17.3291V17.326V17.3229V17.3198V17.3167V17.3136V17.3105V17.3073V17.3042V17.3011V17.298V17.2949V17.2918V17.2887V17.2856V17.2825V17.2794V17.2763V17.2732V17.2701V17.267V17.2639V17.2608V17.2577V17.2546V17.2514V17.2483V17.2452V17.2421V17.239V17.2359V17.2328V17.2297V17.2266V17.2235V17.2204V17.2173V17.2142V17.2111V17.208V17.2049V17.2018V17.1986V17.1955V17.1924V17.1893V17.1862V17.1831V17.18V17.1769V17.1738V17.1707V17.1676V17.1645V17.1614V17.1583V17.1552V17.1521V17.149V17.1459V17.1427V17.1396V17.1365V17.1334V17.1303V17.1272V17.1241V17.121V17.1179V17.1148V17.1117V17.1086V17.1055V17.1024V17.0993V17.0962V17.0931V17.0899V17.0868V17.0837V17.0806V17.0775V17.0744V17.0713V17.0682V17.0651V17.062V17.0589V17.0558V17.0527V17.0496V17.0465V17.0434V17.0403V17.0372V17.034V17.0309V17.0278V17.0247V17.0216V17.0185V17.0154V17.0123V17.0092V17.0061V17.003V16.9999V16.9968V16.9937V16.9906V16.9875V16.9844V16.9812V16.9781V16.975V16.9719V16.9688V16.9657V16.9626V16.9595V16.9564V16.9533V16.9502V16.9471V16.944V16.9409V16.9378V16.9347V16.9316V16.9285V16.9253V16.9222V16.9191V16.916V16.9129V16.9098V16.9067V16.9036V16.9005V16.8974V16.8943V16.8912V16.8881V16.885V16.8819V16.8788V16.8757V16.8726V16.8694V16.8663V16.8632V16.8601V16.857V16.8539V16.8508V16.8477V16.8446V16.8415V16.8384V16.8353V16.8322V16.8291V16.826V16.8229V16.8198V16.8166V16.8135V16.3161L39.533 16.3135C33.6773 16.2841 27.827 16.6748 22.0262 17.4827L21.6046 17.5414L21.5953 17.967L21.5635 19.4229L21.2342 19.4049C20.7212 19.3767 20.0272 19.3382 19.3035 19.2969C17.85 19.2141 16.2935 19.1212 15.8262 19.0787C15.3026 19.0312 14.9427 19.0812 14.69 19.1875C14.5608 19.2419 14.4599 19.3111 14.3837 19.3875C14.355 19.4163 14.3308 19.4452 14.3104 19.4734C13.5787 20.2386 12.9629 21.1084 12.4829 22.0547C11.8517 23.1089 11.3169 24.2188 10.885 25.3706L10.8842 25.3728C10.597 26.15 10.4653 26.907 10.5181 27.501C10.5443 27.7953 10.6197 28.0946 10.7872 28.334C10.9697 28.5949 11.2522 28.7659 11.603 28.7659C11.6548 28.7659 11.7109 28.7662 11.7702 28.7665C12.0782 28.7682 12.4722 28.7704 12.7976 28.732C12.9869 28.7097 13.2128 28.6681 13.4012 28.5708C13.4994 28.5201 13.616 28.4398 13.7043 28.3116C13.7997 28.173 13.8405 28.0089 13.8232 27.8409L13.8204 27.814L13.8148 27.7876C13.7223 27.3555 13.5877 26.9336 13.4129 26.5283C13.4227 26.0009 13.5382 25.4807 13.7527 24.9992C13.9808 24.4872 14.3155 24.031 14.7336 23.6617L14.7357 23.6598C15.1272 23.3101 15.6092 23.0811 16.1246 22.9992C16.6401 22.9173 17.1681 22.9859 17.6465 23.197L17.6789 23.2113L17.7131 23.2209C18.2941 23.3842 19.3973 23.7745 20.3729 24.1313C20.8568 24.3082 21.3034 24.4747 21.629 24.597C21.7318 24.6356 21.8225 24.6697 21.8985 24.6984L24.0594 35.8683L24.1377 36.2733H24.2487L25.0394 40.9229L25.1221 41.4097L25.6099 41.333C27.8975 40.9734 30.1605 40.4702 32.3859 39.8262L39.4018 37.9419L39.7629 37.8449L39.7719 37.471C39.8462 34.3883 39.7695 30.6 39.7203 28.1725C39.701 27.2194 39.6859 26.476 39.6859 26.0675C39.6859 25.0685 39.7424 24.7067 39.8621 24.4563C39.9205 24.3341 40.0046 24.2177 40.1527 24.0504C40.2262 23.9673 40.31 23.8777 40.4112 23.7694L40.416 23.7643C40.5179 23.6553 40.6342 23.5307 40.7637 23.3867L40.7638 23.3867L40.7683 23.3816C41.3049 22.7681 42.649 21.704 43.9743 20.7784C44.629 20.3211 45.2617 19.9097 45.7641 19.617C46.0163 19.4701 46.2274 19.358 46.3876 19.2852C46.4447 19.2593 46.4911 19.2403 46.5274 19.2271C46.5309 19.2298 46.5347 19.2328 46.5386 19.236C46.6098 19.2936 46.7031 19.3872 46.8153 19.5185C47.0381 19.7791 47.2907 20.1346 47.5333 20.5032C47.774 20.8691 47.9968 21.2354 48.1599 21.5112C48.2413 21.6488 48.3075 21.7633 48.3532 21.8431C48.3578 21.8513 48.3623 21.8591 48.3665 21.8665C48.367 21.8748 48.3675 21.8835 48.368 21.8927C48.3734 21.9869 48.3819 22.1236 48.3945 22.2959C48.4197 22.6403 48.4612 23.1273 48.5267 23.7001C48.565 24.0345 48.6575 24.3269 48.8274 24.5521C49.0074 24.7908 49.2521 24.9233 49.5156 24.9553C49.9908 25.013 50.4252 24.7413 50.6666 24.5033Z" fill="#FDC305" stroke="black"/>
<path d="M50.3556 20.3326C53.6136 22.2313 56.5684 24.6191 59.1178 27.4152C57.3158 27.1767 55.8519 27.3356 54.6645 27.7589C53.1732 28.2905 52.1596 29.2242 51.4772 30.2249C50.7988 31.2199 50.4483 32.2795 50.2664 33.0817C50.2097 33.3317 50.169 33.5585 50.1398 33.753C48.6517 33.1383 47.4615 32.9524 46.5061 33.0775C45.3958 33.223 44.6535 33.7821 44.1764 34.4603C43.7184 35.1116 43.513 35.8585 43.4191 36.4275C43.3801 36.404 43.3407 36.3812 43.301 36.3591C42.9234 36.1482 42.4874 35.98 42.0394 35.8443C41.3055 35.6222 40.5038 35.4771 39.8015 35.3833C39.8151 32.8154 39.7593 30.0613 39.7206 28.1556C39.7014 27.2065 39.6864 26.4678 39.6864 26.0675C39.6864 25.0685 39.7428 24.7067 39.8625 24.4563C39.921 24.3341 40.0051 24.2177 40.1532 24.0504C40.2267 23.9673 40.3104 23.8777 40.4115 23.7696L40.4165 23.7643C40.5184 23.6553 40.6347 23.5307 40.7642 23.3867L40.7642 23.3867L40.7687 23.3816C41.3054 22.7681 42.6495 21.704 43.9747 20.7784C44.6295 20.3211 45.2622 19.9097 45.7646 19.617C46.0168 19.4701 46.2279 19.358 46.3881 19.2852C46.4452 19.2593 46.4916 19.2403 46.5278 19.2271C46.5314 19.2298 46.5351 19.2328 46.5391 19.236C46.6102 19.2936 46.7035 19.3872 46.8158 19.5185C47.0386 19.7791 47.2911 20.1346 47.5338 20.5032C47.7745 20.869 47.9973 21.2354 48.1604 21.5112C48.2418 21.6488 48.308 21.7633 48.3536 21.8431C48.3594 21.8532 48.3649 21.8628 48.37 21.8718L48.3719 21.8963C48.3789 21.9856 48.3895 22.1161 48.4042 22.2819C48.4336 22.6135 48.4792 23.087 48.5444 23.6566C48.5826 23.9911 48.6752 24.2835 48.8451 24.5087C49.0251 24.7473 49.2698 24.8798 49.5333 24.9118C50.0085 24.9695 50.4429 24.6978 50.6843 24.4598L50.7178 24.4268L50.7445 24.3882C51.1015 23.872 51.3745 23.3019 51.5534 22.6994L51.6111 22.5052L51.5173 22.3256C51.1609 21.6433 50.7732 20.9783 50.3556 20.3326Z" fill="#F06351" stroke="black"/>
<path d="M38.1682 2.34659C38.1682 2.34661 38.1677 2.34699 38.1667 2.34766L38.1682 2.34659ZM37.0712 5.78886C37.2201 4.75668 37.5028 3.74935 37.9117 2.79266C38.6851 7.25688 39.0718 11.7804 39.0675 16.312C33.5691 16.306 28.0765 16.6705 22.6263 17.403L22.897 5.68754L22.897 5.68743L22.897 5.68648L22.8971 5.68189L22.8978 5.66229C22.8984 5.64475 22.8993 5.61846 22.9008 5.58462C22.9037 5.51689 22.9085 5.41909 22.9159 5.30058C22.931 5.06269 22.9567 4.74539 22.9995 4.422C23.0427 4.09451 23.101 3.77983 23.1761 3.53929C23.213 3.42102 23.2489 3.33751 23.2793 3.28466C23.298 3.28962 23.3243 3.29883 23.3594 3.31575C23.4831 3.37527 23.6578 3.50648 23.8613 3.74183C24.2651 4.20896 24.7145 5.00879 25.0533 6.15465L25.1728 6.55912L25.5917 6.50942C29.2262 6.07813 32.8919 5.98006 36.544 6.21643L37.0052 6.24628L37.0712 5.78886ZM23.2421 3.27944C23.2421 3.27934 23.2431 3.27914 23.2455 3.27912C23.2433 3.27953 23.2421 3.27954 23.2421 3.27944Z" fill="#F06351" stroke="black"/>
<path d="M38.5801 40.7862C38.009 41.7983 37.303 42.7261 36.4825 43.5437L36.2773 43.6963C34.5058 45.014 32.6185 46.165 30.6392 47.1351C29.3747 46.5708 28.1544 45.9104 26.9889 45.1597V45.1293L26.9772 45.0762L26.134 41.2449C28.2445 40.8792 30.3325 40.3909 32.3874 39.7823L38.7525 38.0728C38.7178 39.1154 38.6643 40.0473 38.5801 40.7862Z" fill="#E55645" stroke="black"/>
<mask id="path-5-inside-1" fill="white">
<path d="M27.5657 14.0938C27.5227 14.0069 28.4271 14.6847 28.7803 14.8932C29.1334 15.1018 29.3057 15.2582 29.3057 15.4059C29.3057 15.5536 29.0818 15.7013 28.7717 15.7013C28.4616 15.7013 27.9792 15.5971 27.9103 15.4754C27.8414 15.3538 28.4271 15.4754 28.72 15.4754H28.9698C28.4395 15.084 27.9667 14.6189 27.5657 14.0938Z"/>
</mask>
<path d="M27.5657 14.0938C27.5227 14.0069 28.4271 14.6847 28.7803 14.8932C29.1334 15.1018 29.3057 15.2582 29.3057 15.4059C29.3057 15.5536 29.0818 15.7013 28.7717 15.7013C28.4616 15.7013 27.9792 15.5971 27.9103 15.4754C27.8414 15.3538 28.4271 15.4754 28.72 15.4754H28.9698C28.4395 15.084 27.9667 14.6189 27.5657 14.0938Z" fill="black"/>
<path d="M27.5657 14.0938L26.6698 14.5379L26.7125 14.6242L26.771 14.7008L27.5657 14.0938ZM28.9698 15.4754V16.4754H32.009L29.5636 14.6708L28.9698 15.4754ZM28.4617 13.6497C28.4818 13.6903 28.518 13.7698 28.5414 13.8769C28.563 13.976 28.5931 14.1858 28.504 14.4303C28.4 14.7156 28.1846 14.9108 27.9545 15.0079C27.7601 15.0899 27.5905 15.089 27.5128 15.0847C27.359 15.0761 27.2464 15.0325 27.2255 15.0246C27.1853 15.0095 27.1562 14.9953 27.1447 14.9895C27.1102 14.9723 27.101 14.9642 27.144 14.992C27.2113 15.0357 27.3169 15.1085 27.4526 15.2031C27.6944 15.3717 28.0531 15.6252 28.2718 15.7543L29.2887 14.0321C29.1542 13.9527 28.8841 13.7631 28.5963 13.5624C28.4671 13.4723 28.3325 13.379 28.2313 13.3135C28.1901 13.2867 28.1145 13.2383 28.0374 13.1998C28.0152 13.1888 27.977 13.1705 27.9292 13.1525C27.9007 13.1418 27.7821 13.0965 27.624 13.0877C27.5441 13.0833 27.3728 13.0826 27.177 13.1652C26.9456 13.2628 26.7293 13.4589 26.6249 13.7455C26.5353 13.9912 26.5654 14.2027 26.5874 14.3037C26.6113 14.4128 26.6483 14.4946 26.6698 14.5379L28.4617 13.6497ZM28.2718 15.7543C28.3449 15.7975 28.3981 15.8318 28.436 15.8585C28.4752 15.886 28.4871 15.8978 28.4833 15.8941C28.4813 15.8922 28.4422 15.8553 28.4008 15.7814C28.3559 15.7012 28.3057 15.5718 28.3057 15.4059H30.3057C30.3057 14.9238 30.0253 14.6018 29.8676 14.4506C29.6953 14.2854 29.4838 14.1473 29.2887 14.0321L28.2718 15.7543ZM28.3057 15.4059C28.3057 15.1819 28.3914 15.0141 28.4645 14.9162C28.536 14.8205 28.6097 14.7695 28.6503 14.7457C28.694 14.7201 28.7269 14.7099 28.7433 14.7058C28.761 14.7014 28.7704 14.7013 28.7717 14.7013V16.7013C29.0763 16.7013 29.3894 16.6303 29.6597 16.4723C29.8852 16.3405 30.3057 16.0002 30.3057 15.4059H28.3057ZM28.7717 14.7013C28.7462 14.7013 28.7019 14.6989 28.6447 14.6915C28.5888 14.6842 28.5341 14.6739 28.4892 14.6629C28.4389 14.6505 28.4256 14.6433 28.4406 14.6501C28.448 14.6534 28.4844 14.6699 28.5337 14.705C28.5595 14.7233 28.5965 14.7521 28.6375 14.7934C28.6779 14.8341 28.7315 14.8963 28.7804 14.9825L27.0402 15.9683C27.1497 16.1615 27.2942 16.2777 27.375 16.3351C27.4651 16.3992 27.5529 16.4438 27.6201 16.474C27.7546 16.5345 27.8942 16.5762 28.0119 16.6051C28.2463 16.6627 28.525 16.7013 28.7717 16.7013V14.7013ZM28.7804 14.9825C28.8356 15.08 28.9269 15.2833 28.8999 15.5544C28.8699 15.8557 28.7113 16.0774 28.5529 16.2092C28.4152 16.3238 28.2817 16.3699 28.2233 16.3876C28.1563 16.4078 28.104 16.4149 28.0803 16.4176C28.0159 16.425 27.996 16.4176 28.0926 16.426C28.1742 16.4331 28.2407 16.4413 28.3607 16.4533C28.4562 16.4629 28.5919 16.4754 28.72 16.4754V14.4754C28.6291 14.4754 28.5348 14.457 28.2663 14.4336C28.1885 14.4268 28.0167 14.4118 27.8528 14.4306C27.8159 14.4348 27.5296 14.4588 27.2736 14.6718C27.1053 14.8119 26.9408 15.0435 26.9097 15.3564C26.8816 15.639 26.9764 15.8556 27.0402 15.9683L28.7804 14.9825ZM28.72 16.4754H28.9698V14.4754H28.72V16.4754ZM29.5636 14.6708C29.1094 14.3356 28.7043 13.9371 28.3605 13.4869L26.771 14.7008C27.2292 15.3007 27.7695 15.8325 28.376 16.28L29.5636 14.6708Z" fill="black" mask="url(#path-5-inside-1)"/>
<path d="M34.0264 14.1894L34.0586 14.2144L34.0586 14.2144L34.0264 14.1894Z" fill="black" stroke="black"/>
<path d="M31.8528 18.2694C31.8472 18.3007 31.8349 18.3476 31.8089 18.4129C31.6874 18.628 31.5158 18.8081 31.3107 18.9385C31.0904 18.8239 30.881 18.6885 30.6855 18.534C30.6687 18.5204 30.6567 18.5088 30.6485 18.4999C30.6564 18.4876 30.6688 18.4708 30.6877 18.45C31.0183 18.2538 31.4075 18.1832 31.7854 18.2514C31.8139 18.2575 31.836 18.2637 31.8528 18.2694Z" fill="black" stroke="black"/>
<path d="M29.7908 21.9436C30.1926 21.9213 30.5775 21.7769 30.8954 21.5305C31.1806 22.1644 31.3136 22.8604 31.2797 23.5612C31.2595 23.6956 31.1938 23.9376 31.0421 24.0913C30.9735 24.1607 30.8832 24.2171 30.7472 24.239C30.6046 24.2621 30.3808 24.2519 30.046 24.1295C29.7962 24.0381 29.536 23.8061 29.2811 23.4293C29.0311 23.0597 28.8197 22.6004 28.6483 22.1378C28.5927 21.9878 28.542 21.8393 28.496 21.6957C28.893 21.8981 29.3415 21.9858 29.7908 21.9436Z" fill="#F06351" stroke="black"/>
<path d="M33.501 20.1062L33.5009 20.1057L33.501 20.1062Z" fill="black" stroke="black"/>
<path d="M33.9655 30.0211C33.9655 31.5486 32.739 32.7795 31.2353 32.7795C29.7315 32.7795 28.5051 31.5486 28.5051 30.0211C28.5051 28.4935 29.7315 27.2626 31.2353 27.2626C32.739 27.2626 33.9655 28.4935 33.9655 30.0211Z" fill="#FDC305" stroke="black"/>
<path d="M32.7233 25.8698L32.8883 25.6531L32.8343 25.92L32.7233 25.8698ZM29.9778 33.8232L30.0345 33.5424L30.1512 33.5953L29.9778 33.8232Z" fill="#111111" stroke="black"/>
<path d="M28.4095 28.4483C28.4095 28.7138 28.1973 28.9215 27.9447 28.9215C27.6921 28.9215 27.4799 28.7138 27.4799 28.4483C27.4799 28.1829 27.6921 27.9751 27.9447 27.9751C28.1973 27.9751 28.4095 28.1829 28.4095 28.4483Z" fill="#111111" stroke="black"/>
<path d="M33.7417 32.2629C33.7417 32.37 33.6568 32.4493 33.5612 32.4493C33.4656 32.4493 33.3807 32.37 33.3807 32.2629C33.3807 32.1558 33.4656 32.0764 33.5612 32.0764C33.6568 32.0764 33.7417 32.1558 33.7417 32.2629Z" fill="#111111" stroke="black"/>
<path d="M34.1897 30.7597C34.1897 30.6556 34.2745 30.5638 34.3882 30.5638C34.5019 30.5638 34.5867 30.6556 34.5867 30.7597C34.5867 30.8637 34.502 30.9555 34.3882 30.9555C34.2745 30.9555 34.1897 30.8637 34.1897 30.7597Z" fill="#111111" stroke="black"/>
<path d="M35.5176 23.2384L35.5182 23.2378C36.8524 21.673 38.2824 20.1941 39.7999 18.8098C39.8103 18.8052 39.8218 18.8002 39.8344 18.7946C39.9036 18.7645 40.0063 18.7206 40.1389 18.6667C40.0244 18.8464 39.8985 19.0189 39.7618 19.1831C38.1846 20.9971 36.4784 22.6926 34.6566 24.256C34.5882 24.3097 34.5188 24.364 34.4486 24.4186C34.8157 24.0357 35.1722 23.6421 35.5176 23.2384ZM28.867 26.256L28.8723 26.2597L28.8727 26.26L28.8731 26.2602L28.8817 26.2664L28.9179 26.2925C28.9496 26.3156 28.9956 26.3494 29.0516 26.3915C29.0607 26.3983 29.0699 26.4053 29.0794 26.4125C25.999 25.1273 23.3028 23.0442 21.2682 20.3684L21.7433 20.3948C22.5607 21.2844 23.4342 22.1201 24.3583 22.8965L24.3583 22.8965L24.3612 22.8988C25.2611 23.6436 26.3914 24.4853 27.2918 25.1375C27.743 25.4644 28.1384 25.7452 28.4211 25.9442C28.5625 26.0438 28.6758 26.123 28.7538 26.1774L28.8436 26.2398L28.867 26.256Z" fill="#F06351" stroke="black"/>
<path d="M17.6469 22.9006L17.6794 22.9149L17.7135 22.9245C18.2946 23.0878 19.3978 23.4781 20.3734 23.8349C20.8573 24.0118 21.3038 24.1783 21.6294 24.3006C21.7337 24.3397 21.8255 24.3743 21.9022 24.4033L24.0623 34.9613C22.8086 34.9849 21.5907 35.4236 20.6016 36.219C20.0325 36.6386 19.4914 37.0947 18.9815 37.5846L18.6647 35.257L18.6633 35.2415C18.6614 35.2217 18.6584 35.1948 18.6541 35.1618C18.6453 35.0961 18.6308 35.0053 18.6068 34.898C18.5595 34.6858 18.4727 34.3962 18.3132 34.1049C18.153 33.8126 17.9119 33.5051 17.5518 33.2814C17.1865 33.0546 16.7305 32.9341 16.1789 32.9708L16.1652 32.9717L16.1516 32.9734C14.6914 33.1515 13.2445 33.4255 11.8201 33.7937C11.8201 33.7933 11.82 33.7929 11.8199 33.7924C11.7634 33.4063 11.635 32.8837 11.3456 32.3423C10.7517 31.2312 9.52475 30.1265 7.11037 29.8794C5.31956 29.664 3.51701 29.5711 1.71507 29.6011C2.55195 29.0339 3.69429 28.2668 4.97435 27.4274C7.08961 26.0403 9.56933 24.4633 11.6665 23.2627C11.3773 23.8531 11.1167 24.4576 10.8855 25.0742L10.8846 25.0764C10.5974 25.8536 10.4657 26.6106 10.5186 27.2046C10.5447 27.4989 10.6202 27.7982 10.7877 28.0376C10.9702 28.2985 11.2526 28.4695 11.6034 28.4695C11.6553 28.4695 11.7114 28.4698 11.7707 28.4701C12.0787 28.4718 12.4727 28.474 12.798 28.4356C12.9874 28.4133 13.2133 28.3717 13.4017 28.2744C13.4998 28.2237 13.6164 28.1434 13.7047 28.0152C13.8002 27.8766 13.841 27.7125 13.8237 27.5445L13.8209 27.5176L13.8152 27.4912C13.7228 27.0591 13.5882 26.6372 13.4134 26.2319C13.4232 25.7045 13.5387 25.1843 13.7531 24.7028L13.2964 24.4994L13.7532 24.7028C13.9813 24.1908 14.3159 23.7346 14.7341 23.3653L14.7341 23.3653L14.7362 23.3634C15.1276 23.0137 15.6096 22.7847 16.1251 22.7028C16.6405 22.6209 17.1686 22.6895 17.6469 22.9006Z" fill="#F06351" stroke="black"/>
<path d="M73.7899 36.4945C72.9025 35.1681 72.4782 33.5814 72.584 31.9848V25.468C72.472 23.8596 72.8899 22.2589 73.7727 20.9148C74.5709 19.8779 75.9348 19.3624 77.8643 19.3682C79.7938 19.374 81.1002 19.8287 81.7836 20.7324C82.6168 21.8522 83.0234 23.2368 82.9292 24.6338V26.1631H79.3631V24.5035C79.3583 24.0668 79.3208 23.6311 79.2511 23.2001C79.208 22.8881 79.066 22.5985 78.8462 22.3746C78.7106 22.2573 78.5531 22.1684 78.3831 22.1132C78.213 22.058 78.0337 22.0376 77.8557 22.0531C77.6 22.0146 77.3388 22.0565 77.1076 22.1731C76.8764 22.2898 76.6864 22.4754 76.5636 22.7048C76.3371 23.315 76.2374 23.9657 76.2707 24.6164V32.8885C76.2314 33.5435 76.3465 34.1986 76.6066 34.8001C76.7309 35.0171 76.9153 35.1927 77.1372 35.3054C77.3591 35.4181 77.6088 35.463 77.8557 35.4344C78.0982 35.469 78.3454 35.4255 78.5619 35.31C78.7785 35.1946 78.9533 35.0131 79.0616 34.7914C79.27 34.1801 79.3606 33.5342 79.3286 32.8885V31.1507H82.8948V32.6539C82.9997 34.0715 82.6263 35.4832 81.8353 36.6596C81.0772 37.6154 79.7679 38.0846 77.9073 38.0846C76.0467 38.0846 74.591 37.5633 73.7899 36.4945Z" fill="#111111"/>
<path d="M87.788 19.6201H91.871L95.3166 37.8674H91.9227L91.3111 33.8356H88.4513L87.7622 37.8413H84.3167L87.788 19.6201ZM90.9321 31.5417L89.8468 24.208L88.77 31.5417H90.9321Z" fill="#111111"/>
<path d="M97.9615 22.3659H95.1707V19.6201H104.405V22.3659H101.648V37.8413H97.9529L97.9615 22.3659Z" fill="#111111"/>
<path d="M111.65 19.6201H118.653V21.5144H114.174V27.536H117.809V29.3346H114.174V36.0166H118.696V37.8413H111.65V19.6201Z" fill="#444444"/>
<path d="M120.729 19.6201H122.452L127.62 31.7241V19.6201H129.722V37.8674H128.111L122.943 25.4245V37.8413H120.807L120.729 19.6201Z" fill="#444444"/>
<path d="M132.505 19.6201H139.499V21.5144H135.02V27.536H138.69V29.3346H135.055V36.0166H139.551V37.8413H132.505V19.6201Z" fill="#444444"/>
<path d="M141.576 19.6201H145.211C146.643 19.5039 148.07 19.9075 149.234 20.7584C150.095 21.5144 150.517 22.7482 150.517 24.46C150.517 26.7771 149.773 28.1935 148.286 28.709L150.87 37.8413H148.424L146.055 29.2912H144.1V37.8413H141.576V19.6201ZM145.021 27.4404C145.851 27.5214 146.681 27.2858 147.347 26.78C147.618 26.4569 147.82 26.0812 147.942 25.6763C148.063 25.2713 148.101 24.8456 148.053 24.4253C148.071 23.8357 147.986 23.2477 147.804 22.6874C147.73 22.4808 147.615 22.2913 147.467 22.1301C147.319 21.969 147.141 21.8393 146.942 21.749C146.383 21.5176 145.78 21.4137 145.176 21.4449H144.065V27.4751L145.021 27.4404Z" fill="#444444"/>
<path d="M153.911 36.4945C153.088 35.0926 152.707 33.4714 152.817 31.8458V25.7634C152.788 24.5896 152.933 23.418 153.248 22.2877C153.497 21.438 154.026 20.6992 154.747 20.1936C155.618 19.6642 156.626 19.41 157.641 19.4637C158.298 19.4007 158.961 19.4832 159.582 19.7053C160.204 19.9274 160.771 20.2839 161.242 20.7497C162.068 21.9176 162.459 23.3426 162.344 24.7728V25.4506H159.976V24.8858C159.992 24.2103 159.94 23.5348 159.821 22.8699C159.742 22.4437 159.509 22.0626 159.166 21.8011C158.719 21.5349 158.202 21.4108 157.684 21.4449C157.122 21.3963 156.562 21.5709 156.125 21.9315C155.768 22.2734 155.534 22.7261 155.462 23.2175C155.353 23.9332 155.304 24.657 155.315 25.3811V32.1499C155.247 33.1785 155.421 34.2088 155.824 35.1564C156.057 35.4478 156.354 35.6814 156.691 35.8395C157.028 35.9975 157.396 36.0757 157.768 36.0682C158.139 36.0606 158.504 35.9675 158.835 35.7959C159.165 35.6243 159.452 35.3788 159.674 35.0782C160.089 34.076 160.269 32.9905 160.2 31.9066V30.6206H157.908V28.822H162.474V37.8413H160.914L160.665 35.7472C160.467 36.4429 160.042 37.0508 159.459 37.472C158.876 37.8933 158.168 38.103 157.452 38.0672C156.778 38.1272 156.1 38.0144 155.481 37.7395C154.862 37.4645 154.322 37.0363 153.911 36.4945Z" fill="#444444"/>
<path d="M167.711 31.4113L163.809 19.6201H166.152L168.917 28.4136L171.639 19.6201H174.008L170.132 31.4113V37.8413H167.72L167.711 31.4113Z" fill="#444444"/>
</g>
<defs>
<clipPath id="clip0">
<rect width="174" height="51.6832" fill="white"/>
</clipPath>
</defs>
</svg>
