<svg xmlns="http://www.w3.org/2000/svg" xmlns:xlink="http://www.w3.org/1999/xlink"><defs>
<clipPath id="clip0">
<rect width="202" height="59" fill="white"/>
</clipPath>

<clipPath id="clip0">
<rect width="101" height="18" fill="white"/>
</clipPath>

<clipPath id="clip0">
<rect width="33.32" height="37.61" fill="white"/>
</clipPath>

<clipPath id="clip0">
<rect width="174" height="51.6832" fill="white"/>
</clipPath>
</defs><symbol id="logo-desktop" viewBox="0 0 202 59">
<g clip-path="url(#clip0)">
<path d="M59.8825 23.8063C58.1585 19.7092 55.3821 16.1318 51.83 13.4305C48.2778 10.7293 44.074 8.99857 39.6374 8.41088C35.2008 7.82319 30.6864 8.39905 26.5441 10.0811C22.4017 11.7631 18.7762 14.4925 16.0287 17.9973C13.2812 21.5021 11.5077 25.6599 10.885 30.0564C10.2622 34.4529 10.812 38.9344 12.4795 43.0545C14.147 47.1745 16.874 50.7892 20.3887 53.5382C23.9034 56.2872 28.083 58.0746 32.5111 58.7223C31.9311 56.6491 31.3411 54.3578 30.8211 51.9275C32.3339 52.9009 33.9262 53.747 35.5813 54.457C35.5813 54.457 35.7013 56.5995 35.8613 58.9901C37.6496 59.0207 39.4362 58.8644 41.1916 58.5239C41.1462 58.2746 41.1462 58.0193 41.1916 57.77C41.4816 55.9151 42.2816 52.5723 42.4416 50.4198C43.595 49.3498 44.5734 48.1082 45.3418 46.7397L45.2818 47.1762C44.7317 51.4018 43.5817 55.9151 42.8817 57.1649C42.655 57.5786 42.3761 57.962 42.0516 58.3056C45.6716 57.4633 49.0636 55.8502 51.9924 53.5781C54.9212 51.3059 57.3168 48.4292 59.013 45.1473C60.7093 41.8653 61.6656 38.2568 61.8158 34.5717C61.9659 30.8867 61.3062 27.2133 59.8825 23.8063ZM58.4124 27.5657C57.9724 27.9923 57.0624 28.2799 56.9123 26.9904C56.7623 25.7009 56.7223 24.7983 56.7223 24.7983C56.7223 24.7983 54.7922 21.3959 54.0722 21.3563C53.3522 21.3166 48.2419 24.7983 46.8918 26.3159C45.7218 27.5955 45.4918 27.5062 45.4918 29.7579C45.4918 31.4541 45.7118 37.862 45.5918 42.7621L37.4414 44.9146C34.8796 45.6438 32.2744 46.2137 29.641 46.6207L28.6409 40.8378H28.5009L25.9308 27.774C25.9308 27.774 22.1206 26.3457 20.7206 25.9588C20.0632 25.6735 19.3372 25.5808 18.6284 25.6915C17.9196 25.8023 17.2575 26.1118 16.7204 26.5837C16.1723 27.0597 15.7342 27.6471 15.4356 28.3061C15.1371 28.9651 14.9852 29.6802 14.9903 30.4027C15.2017 30.8637 15.3626 31.3459 15.4703 31.841C15.5203 32.3171 14.2702 32.2675 13.4702 32.2675C12.6702 32.2675 12.5502 30.8391 13.1802 29.1627C13.6717 27.8737 14.2809 26.632 15.0003 25.4529C15.5413 24.3997 16.2392 23.4333 17.0704 22.5862C17.0704 22.5862 17.2104 22.249 18.3204 22.3482C19.4305 22.4474 25.6008 22.7747 25.6008 22.7747L25.6508 20.523C32.3575 19.6045 39.1216 19.1603 45.8918 19.1938C45.8918 19.7989 45.8918 20.404 45.8918 21.0091C48.4562 19.8483 51.2175 19.1754 54.0322 19.0252C54.1828 19.0214 54.332 19.0548 54.4664 19.1223C54.6008 19.1898 54.7162 19.2894 54.8022 19.4121C55.1423 19.8386 57.2124 22.3879 57.4524 22.7549C58.1246 23.7078 58.7359 24.7017 59.2825 25.7307C59.0951 26.3822 58.8012 26.9988 58.4124 27.5558V27.5657Z" fill="#FDC305"/>
<path d="M56.4628 21.4951C56.9329 22.0903 57.3429 22.616 57.4629 22.7747C58.1351 23.7277 58.7464 24.7215 59.293 25.7505C59.1027 26.3806 58.8124 26.9767 58.4329 27.5161C57.9929 27.9427 57.0829 28.2303 56.9329 26.9408C56.7829 25.6513 56.7229 24.7983 56.7229 24.7983C56.7229 24.7983 54.7928 21.3959 54.0727 21.3563C53.3527 21.3166 48.2424 24.7983 46.8924 26.3159C45.7223 27.5955 45.4923 27.5062 45.4923 29.7579C45.4923 31.2458 45.6623 36.3542 45.6223 40.8973C47.4324 41.0957 50.0925 41.5916 50.8926 42.7621C50.8926 42.7621 50.6026 35.64 58.703 39.3697C58.703 39.3697 58.983 29.6587 70.1635 32.1485C66.3628 27.7223 61.7035 24.0994 56.4628 21.4951Z" fill="#F06351"/>
<path d="M45.9323 19.1938C45.9729 13.6973 45.5043 8.2087 44.5322 2.79724C44.5322 2.79724 44.3822 1.50773 43.6622 2.55918C43.068 3.81617 42.6636 5.15308 42.4621 6.5269C38.1871 6.25483 33.896 6.36771 29.6415 6.86415C28.8214 4.13635 27.4214 2.89643 26.7513 3.22377C26.0813 3.55111 26.0013 6.4773 26.0013 6.4773L25.6713 20.523C32.3846 19.6036 39.1554 19.1594 45.9323 19.1938Z" fill="#F06351"/>
<path d="M45.3515 46.7397C45.4815 45.6784 45.5515 44.2698 45.5915 42.7125L37.4415 44.865C34.8809 45.611 32.2758 46.1974 29.6415 46.6207L30.7515 51.5804C30.7515 51.6895 30.7515 51.7986 30.8215 51.9077C32.3342 52.8811 33.9265 53.7272 35.5815 54.4371C38.0002 53.2903 40.3038 51.9186 42.4615 50.3404V50.4C43.6096 49.3352 44.5845 48.1005 45.3515 46.7397Z" fill="#E55645"/>
<path d="M32.0016 16.0891C31.9516 15.9899 33.0016 16.7636 33.4116 17.0017C33.8216 17.2397 34.0216 17.4183 34.0216 17.5869C34.0216 17.7556 33.7616 17.9242 33.4016 17.9242C33.0416 17.9242 32.4816 17.8051 32.4016 17.6663C32.3216 17.5274 33.0016 17.6663 33.3416 17.6663H33.6316C33.0159 17.2195 32.4672 16.6885 32.0016 16.0891Z" fill="black"/>
<path d="M39.502 16.1982C39.502 16.1982 38.502 17.4679 38.412 17.5274C38.322 17.5869 38.2419 17.8647 38.6019 17.8151C39.0152 17.7539 39.4231 17.661 39.8219 17.5373C39.9319 17.4778 39.892 17.3389 39.702 17.3588C39.512 17.3786 39.022 17.4084 38.702 17.4679L39.5519 16.2081C39.5519 16.2081 39.582 16.0891 39.502 16.1982Z" fill="black"/>
<path d="M36.3617 22.2589C36.8253 22.0563 37.2084 21.7077 37.4517 21.267C37.7317 20.6123 37.4517 20.3643 37.0117 20.275C36.4064 20.1655 35.7817 20.2859 35.2617 20.6123C34.8717 20.9793 34.9217 21.3364 35.2617 21.6042C35.5995 21.867 35.9691 22.0869 36.3617 22.2589Z" fill="black"/>
<path d="M36.0016 23.5087C35.8868 23.7337 35.7308 23.9355 35.5416 24.1039C35.2568 24.3312 34.9067 24.4631 34.5416 24.4808C33.991 24.5344 33.4405 24.3784 33.0016 24.0444C32.8 23.9274 32.6206 23.7764 32.4716 23.598C32.3715 23.49 32.2486 23.4053 32.1116 23.35C32.1116 23.35 32.8616 27.4269 34.6816 28.0815C36.5016 28.7362 36.8416 27.3277 36.8916 26.9507C36.9525 25.8218 36.6666 24.7011 36.0716 23.7369C36.0716 23.4393 36.0516 23.6377 36.0016 23.5087Z" fill="#F06351"/>
<path d="M34.3015 24.6395C33.8335 24.5728 33.384 24.4127 32.9801 24.1689C32.5763 23.9251 32.2263 23.6027 31.9515 23.2211C31.9269 23.1938 31.9133 23.1585 31.9133 23.1219C31.9133 23.0853 31.9269 23.05 31.9515 23.0227C31.9646 23.0095 31.9801 22.999 31.9973 22.9919C32.0145 22.9847 32.0329 22.981 32.0515 22.981C32.0702 22.981 32.0886 22.9847 32.1058 22.9919C32.1229 22.999 32.1385 23.0095 32.1515 23.0227C32.399 23.3671 32.7129 23.6593 33.0751 23.8823C33.4374 24.1054 33.8406 24.2549 34.2615 24.3221C34.5945 24.2973 34.9168 24.1945 35.2019 24.022C35.487 23.8496 35.7268 23.6125 35.9015 23.3302L36.0415 23.1417L36.1415 23.36C36.1415 23.36 36.5215 24.1138 37.1415 24.1535C37.7615 24.1932 38.2015 23.7369 38.7715 22.8739C38.7927 22.8423 38.8257 22.8204 38.8632 22.813C38.9007 22.8055 38.9397 22.8132 38.9715 22.8342C39.0034 22.8553 39.0254 22.888 39.0329 22.9252C39.0404 22.9624 39.0327 23.001 39.0115 23.0326C38.3449 24.0047 37.7149 24.4709 37.1215 24.4312C36.8922 24.4011 36.6726 24.3204 36.4788 24.1951C36.285 24.0698 36.1219 23.9031 36.0015 23.7071C35.8059 23.9781 35.5518 24.2025 35.2577 24.3638C34.9636 24.5251 34.6369 24.6193 34.3015 24.6395Z" fill="black"/>
<path d="M36.2616 37.9909C38.3327 37.9909 40.0116 36.3255 40.0116 34.2712C40.0116 32.2168 38.3327 30.5514 36.2616 30.5514C34.1905 30.5514 32.5116 32.2168 32.5116 34.2712C32.5116 36.3255 34.1905 37.9909 36.2616 37.9909Z" fill="#FDC305"/>
<path d="M41.2316 31.2458L38.1016 32.5452L39.2516 26.9607L31.7516 36.6419L34.8816 35.3425L33.7316 40.937L41.2316 31.2458ZM33.8416 35.0449L38.0016 29.6786L37.1916 33.6463L39.1916 32.8329L35.0016 38.2092L35.8116 34.2414L33.8416 35.0449Z" fill="#111111"/>
<path d="M32.4415 33.5868C33.0601 33.5868 33.5615 33.0894 33.5615 32.4758C33.5615 31.8622 33.0601 31.3648 32.4415 31.3648C31.823 31.3648 31.3215 31.8622 31.3215 32.4758C31.3215 33.0894 31.823 33.5868 32.4415 33.5868Z" fill="#111111"/>
<path d="M38.9619 37.614C39.3982 37.614 39.7519 37.2631 39.7519 36.8304C39.7519 36.3976 39.3982 36.0467 38.9619 36.0467C38.5256 36.0467 38.1719 36.3976 38.1719 36.8304C38.1719 37.2631 38.5256 37.614 38.9619 37.614Z" fill="#111111"/>
<path d="M39.9219 35.4615C40.1152 35.4615 40.2719 35.3061 40.2719 35.1143C40.2719 34.9226 40.1152 34.7672 39.9219 34.7672C39.7286 34.7672 39.5719 34.9226 39.5719 35.1143C39.5719 35.3061 39.7286 35.4615 39.9219 35.4615Z" fill="#111111"/>
<path d="M45.8822 20.9892C44.077 22.6034 42.3768 24.3295 40.792 26.1572C39.2133 27.9717 37.4318 29.6023 35.4817 31.0177C35.2617 30.4919 33.8516 29.5099 33.8516 29.5099C33.8516 29.5099 30.7115 27.3773 28.6514 25.7009C27.5377 24.7809 26.4886 23.7867 25.5112 22.7251L23.5111 22.616C26.3983 26.7991 30.628 29.8897 35.5117 31.3847C36.3717 31.2458 38.7919 29.5298 40.602 28.1311C42.7434 26.3247 44.7489 24.3654 46.6022 22.2688C47.1004 21.6816 47.4867 21.0094 47.7423 20.285C46.6023 20.6619 45.8822 20.9892 45.8822 20.9892Z" fill="#F06351"/>
<path d="M65.2227 3.47176L56.7627 12.8356L55.5427 10.8616L63.6927 0L65.2227 3.47176Z" fill="#FDC305"/>
<path d="M62.6531 17.1207L68.1931 13.0439L67.4131 9.33406L62.0131 14.1052L62.6531 17.1207Z" fill="#FDC305"/>
<path d="M59.923 48.9716L66.053 52.1259L69.063 49.8048L62.373 47.077L59.923 48.9716Z" fill="#FDC305"/>
<path d="M1.94995 5.92182L5.01995 2.58894L14.31 11.5163L13.09 13.7779L1.94995 5.92182Z" fill="#FDC305"/>
<path d="M7.38003 16.1486L2.68003 13.0439L0.280029 16.8826L5.43003 19.2633L7.38003 16.1486Z" fill="#FDC305"/>
<path d="M13.91 52.1259L9.35999 55.4489L12.16 59L16.18 55.0124L13.91 52.1259Z" fill="#FDC305"/>
<path d="M25.9313 27.774C25.9313 27.774 22.1211 26.3457 20.721 25.9588C20.0636 25.6735 19.3377 25.5808 18.6289 25.6915C17.9201 25.8023 17.258 26.1118 16.7208 26.5837C16.1728 27.0597 15.7346 27.6471 15.4361 28.3061C15.1375 28.9651 14.9856 29.6802 14.9907 30.4027C15.2021 30.8637 15.3631 31.3459 15.4708 31.841C15.5208 32.3171 14.2707 32.2675 13.4707 32.2675C12.6706 32.2675 12.5506 30.8391 13.1807 29.1627C13.6722 27.8737 14.2814 26.632 15.0007 25.4529C9.55047 28.27 0 34.7771 0 34.7771C2.73182 34.6137 5.47292 34.6933 8.1904 35.0151C13.4407 35.5409 13.1907 39.6474 13.1907 39.6474C15.0373 39.1425 16.9192 38.7745 18.8209 38.5464C20.941 38.4075 21.091 40.6493 21.091 40.6493L21.6211 44.4781C22.4259 43.6145 23.3134 42.8305 24.2712 42.1372C25.5057 41.157 27.0776 40.6942 28.6514 40.8477L25.9313 27.774Z" fill="#F06351"/>
<path d="M85.6642 41.6611C84.634 40.1469 84.1415 38.3356 84.2642 36.5129V29.0735C84.1343 27.2374 84.6194 25.4102 85.6442 23.8758C86.5709 22.6921 88.1542 22.1035 90.3942 22.1101C92.6342 22.1167 94.1509 22.6358 94.9442 23.6675C95.9115 24.9458 96.3836 26.5265 96.2742 28.1212V29.867H92.1342V27.9724C92.1286 27.4739 92.0852 26.9766 92.0042 26.4845C91.9542 26.1283 91.7893 25.7978 91.5342 25.5422C91.3767 25.4083 91.1939 25.3068 90.9965 25.2438C90.799 25.1808 90.5909 25.1574 90.3842 25.1752C90.0874 25.1313 89.7842 25.1791 89.5158 25.3122C89.2474 25.4453 89.0268 25.6573 88.8842 25.9191C88.6213 26.6157 88.5055 27.3585 88.5442 28.1014V37.5446C88.4986 38.2923 88.6322 39.0402 88.9342 39.7268C89.0785 39.9745 89.2926 40.175 89.5502 40.3037C89.8078 40.4323 90.0977 40.4835 90.3842 40.4509C90.6658 40.4904 90.9527 40.4407 91.2041 40.3089C91.4555 40.1771 91.6585 39.9699 91.7842 39.7169C92.0261 39.019 92.1313 38.2816 92.0942 37.5446V35.5607H96.2342V37.2767C96.3561 38.895 95.9226 40.5066 95.0042 41.8495C94.1242 42.9407 92.6042 43.4763 90.4442 43.4763C88.2842 43.4763 86.5942 42.8811 85.6642 41.6611Z" fill="#111111"/>
<path d="M101.915 22.3978H106.655L110.655 43.2283H106.715L106.005 38.6258H102.685L101.885 43.1986H97.8849L101.915 22.3978ZM105.565 36.0071L104.305 27.6352L103.055 36.0071H105.565Z" fill="#111111"/>
<path d="M113.725 25.5323H110.485V22.3978H121.205V25.5323H118.005V43.1986H113.715L113.725 25.5323Z" fill="#111111"/>
<path d="M129.616 22.3978H137.746V24.5602H132.546V31.4343H136.766V33.4876H132.546V41.1155H137.796V43.1986H129.616V22.3978Z" fill="#444444"/>
<path d="M140.157 22.3978H142.157L148.157 36.2154V22.3978H150.597V43.2283H148.727L142.727 29.0239V43.1986H140.247L140.157 22.3978Z" fill="#444444"/>
<path d="M153.828 22.3978H161.948V24.5602H156.748V31.4343H161.008V33.4876H156.788V41.1155H162.008V43.1986H153.828V22.3978Z" fill="#444444"/>
<path d="M164.358 22.3978H168.578C170.241 22.265 171.897 22.7259 173.248 23.6972C174.248 24.5602 174.738 25.9687 174.738 27.9228C174.738 30.568 173.875 32.1848 172.148 32.7734L175.148 43.1986H172.308L169.558 33.438H167.288V43.1986H164.358V22.3978ZM168.358 31.3251C169.322 31.4176 170.285 31.1486 171.058 30.5713C171.372 30.2024 171.607 29.7736 171.748 29.3113C171.889 28.849 171.933 28.363 171.878 27.8832C171.898 27.2102 171.8 26.5389 171.588 25.8993C171.502 25.6635 171.369 25.4471 171.198 25.2631C171.026 25.0791 170.819 24.9312 170.588 24.828C169.939 24.5638 169.239 24.4453 168.538 24.4808H167.248V31.3648L168.358 31.3251Z" fill="#444444"/>
<path d="M178.679 41.6611C177.723 40.0607 177.28 38.21 177.409 36.3542V29.4107C177.374 28.0708 177.543 26.7333 177.909 25.443C178.198 24.473 178.811 23.6297 179.649 23.0525C180.66 22.4481 181.83 22.1579 183.009 22.2192C183.771 22.1473 184.54 22.2414 185.262 22.495C185.984 22.7486 186.642 23.1555 187.189 23.6873C188.148 25.0205 188.602 26.6472 188.469 28.2799V29.0536H185.719V28.4089C185.738 27.6377 185.677 26.8667 185.539 26.1076C185.448 25.6211 185.177 25.186 184.779 24.8875C184.26 24.5836 183.66 24.4419 183.059 24.4808C182.406 24.4254 181.756 24.6247 181.249 25.0363C180.834 25.4267 180.563 25.9435 180.479 26.5044C180.352 27.3215 180.295 28.1477 180.309 28.9743V36.7014C180.229 37.8756 180.432 39.0518 180.899 40.1335C181.17 40.4662 181.515 40.7329 181.906 40.9133C182.297 41.0937 182.725 41.183 183.156 41.1744C183.587 41.1658 184.011 41.0595 184.394 40.8636C184.778 40.6677 185.111 40.3874 185.369 40.0442C185.851 38.9001 186.059 37.661 185.979 36.4237V34.9556H183.319V32.9023H188.619V43.1986H186.809L186.519 40.808C186.29 41.6022 185.796 42.2962 185.119 42.777C184.442 43.2578 183.621 43.4973 182.789 43.4565C182.007 43.5249 181.22 43.3961 180.501 43.0823C179.783 42.7684 179.156 42.2795 178.679 41.6611Z" fill="#444444"/>
<path d="M194.699 35.8583L190.169 22.3978H192.889L196.099 32.4361L199.259 22.3978H202.009L197.509 35.8583V43.1986H194.709L194.699 35.8583Z" fill="#444444"/>
</g>

</symbol><symbol id="logo-htmlacademy" viewBox="0 0 60 60">
<path fill="#666666" d="M30.2 5h-.2l-19.7 2.1v36.2l19.7 11.7 19.7-11.7v-36.2l-19.5-2.1zm17 36.8l-17.2 10.2-17.2-10.2v-14.8l17.1 10.2v1.8l-11.7-7v1.8l11.8 7.1v1.9l-11.8-7v1.8l11.8 7 11.9-7.1v-7.6l5.3-3.2v15.1zm-.1-17l-4.7 2.8-2.2 1.3-10.3-6.1v1.8l8.8 5.3h-.1l-.2.1-1.3.7-7.3-4.3v1.8l5.8 3.4-1.4.9-4.3-2.6v1.8l2.9 1.7-2.9 1.7-17-10.1 17-10.2 17.2 10zm.1-1.8l-17.3-10.2-17.1 10.2v-13.6l17.2-1.8 17.2 1.8v13.6z"/>
</symbol><symbol id="logo-mobile" viewBox="0 0 101 18">
<g clip-path="url(#clip0)">
<path d="M1.26449 16.5385C0.36955 15.2762 -0.0747041 13.7627 1.02073e-05 12.2308V5.84615C-0.108365 4.29774 0.308071 2.75746 1.18546 1.46154C2.05478 0.461538 3.39829 0 5.37403 0C7.34978 0 8.61425 0.461538 9.40455 1.30769C10.2626 2.37941 10.6846 3.72136 10.59 5.07692V6.61539H6.71754V4.84615C6.74881 4.32289 6.66808 3.799 6.48045 3.30769C6.38016 3.10938 6.2212 2.9448 6.02403 2.83513C5.82686 2.72547 5.60049 2.67572 5.37403 2.69231C4.82082 2.69231 4.42568 2.84615 4.26762 3.23077C4.08883 3.77733 4.00862 4.34988 4.03053 4.92308V13.1538C3.98879 13.71 4.0978 14.267 4.34665 14.7692C4.5047 15.1538 4.89985 15.3077 5.45306 15.3077C6.00627 15.3077 6.32239 15.1538 6.48045 14.7692C6.66013 14.2494 6.74049 13.7019 6.71754 13.1538V11.3077H10.59V12.8462C10.6704 14.2238 10.2508 15.5852 9.40455 16.6923C8.61425 17.6154 7.27075 18.0769 5.37403 18.0769C3.47732 18 2.05478 17.5385 1.26449 16.5385Z" fill="#111111"/>
<path d="M15.2527 0.23077H19.7574L23.0767 17.7692H19.4413L18.8091 14.0769H16.2011L15.5689 17.7692H11.8545L15.2527 0.23077ZM18.493 11.7692L17.5446 4.92308L16.5963 11.7692H18.493Z" fill="#111111"/>
<path d="M25.8427 3.15385H23.1557V0.23077H32.5602V3.07692H29.8732V17.7692H25.8427V3.15385Z" fill="#111111"/>
<path d="M39.752 0.23077H46.7066V2.07692H42.2019V7.84615H45.8372V9.61539H42.2019V16.0769H46.7066V17.8462H39.6729V0.23077H39.752Z" fill="#111111"/>
<path d="M48.7613 0.23077H50.5L55.6369 11.8462V0.23077H57.6917V17.7692H56.1111L50.8951 5.76923V17.7692H48.7613V0.23077Z" fill="#111111"/>
<path d="M60.0626 0.23077H67.0172V2.07692H62.5125V7.84615H66.1479V9.61539H62.5125V16.0769H67.0172V17.8462H60.0626V0.23077Z" fill="#111111"/>
<path d="M69.072 0.230769H72.7074C74.1375 0.134616 75.5587 0.514352 76.7379 1.30769C77.6072 2 78.0024 3.23077 78.0024 4.84615C78.0024 7.07692 77.2911 8.46154 75.7895 8.92308L78.3185 17.6923H75.8686L73.4977 9.46154H71.5219V17.6923H68.993V0.230769H69.072ZM72.5493 7.76923C73.364 7.83458 74.1761 7.61652 74.8412 7.15384C75.3154 6.76923 75.5524 6 75.5524 4.84615C75.5743 4.27296 75.4941 3.7004 75.3154 3.15385C75.1375 2.76165 74.832 2.4373 74.446 2.23077C73.9017 1.98934 73.3042 1.8836 72.7074 1.92308H71.601V7.69231H72.5493V7.76923Z" fill="#111111"/>
<path d="M81.1635 16.4615C80.342 15.1166 79.9564 13.5617 80.0571 12V6.15384C80.0376 5.03911 80.1705 3.9268 80.4522 2.84615C80.7167 2.03863 81.2437 1.33668 81.9538 0.846152C82.8362 0.337748 83.8542 0.0967294 84.8779 0.153844C86.5375 0.153844 87.723 0.53846 88.4343 1.38461C89.2524 2.50191 89.6438 3.86237 89.5407 5.23077V5.84615H87.1698V5.30769C87.1734 4.66346 87.1205 4.0201 87.0117 3.38461C86.9451 2.98303 86.7178 2.62348 86.3795 2.38461C85.9353 2.10082 85.4081 1.96579 84.8779 2C84.3113 1.96466 83.7504 2.12843 83.2973 2.46154C83.1114 2.61401 82.9595 2.80181 82.8508 3.01344C82.742 3.22507 82.6789 3.45608 82.6651 3.69231C82.5609 4.37999 82.5081 5.07411 82.507 5.76923V12.3077C82.4488 13.3038 82.6105 14.3006 82.9812 15.2308C83.2973 15.8462 83.9296 16.0769 84.8779 16.0769C85.2524 16.1223 85.6322 16.0589 85.9697 15.8947C86.3072 15.7304 86.5873 15.4727 86.7746 15.1538C87.1922 14.1811 87.3812 13.1299 87.3278 12.0769V10.8462H85.036V9.07692H89.6197V17.7692H88.0391L87.802 15.7692C87.5948 16.4395 87.1634 17.0231 86.5763 17.4273C85.9892 17.8315 85.2801 18.0331 84.5618 18C83.9088 18.0374 83.2565 17.9164 82.6633 17.6479C82.0702 17.3794 81.5549 16.9717 81.1635 16.4615Z" fill="#111111"/>
<path d="M94.6776 11.6154L90.8052 0.30769H93.1761L95.9421 8.76923L98.6291 0.30769H101L97.1275 11.6154V17.7692H94.7566V11.6154H94.6776Z" fill="#111111"/>
</g>

</symbol><symbol id="logo-mobile1" viewBox="0 0 34 38">
<g clip-path="url(#clip0)">
<path d="M6.07 20.72V18.46C12.7536 17.5423 19.4937 17.0979 26.24 17.13C26.24 17.73 26.24 18.34 26.18 18.95C28.0976 18.099 30.1128 17.4877 32.18 17.13C30.8625 13.722 28.4618 10.8412 25.3471 8.93086C22.2324 7.02051 18.5764 6.1864 14.9414 6.55683C11.3064 6.92726 7.89379 8.48172 5.22852 10.9811C2.56325 13.4804 0.792969 16.7863 0.190001 20.39L6.07 20.72Z" fill="#FDC305"/>
<path d="M27.24 24.23C26.08 25.51 25.85 25.43 25.85 27.68C25.85 28.59 25.85 32.58 25.85 36.86C28.1425 35.346 30.0245 33.2879 31.328 30.8694C32.6315 28.4509 33.3158 25.7474 33.32 23C33.3068 21.9591 33.1997 20.9216 33 19.9C30.9282 21.1295 28.9967 22.5814 27.24 24.23Z" fill="#FDC305"/>
<path d="M6.36 25.72C6.36 25.72 2.57 24.28 1.17 23.89C0.787067 23.7693 0.396097 23.6757 0 23.61C0.108395 26.496 0.965588 29.3041 2.48739 31.7586C4.00919 34.2131 6.14326 36.2296 8.68 37.61L6.36 25.72Z" fill="#FDC305"/>
<path d="M26.29 17.12C26.3307 11.5986 25.862 6.08529 24.89 0.650004C24.89 0.650004 24.75 -0.639996 24 0.410004C23.4109 1.65814 23.0067 2.98539 22.8 4.35C18.5418 4.07577 14.2675 4.18958 10.03 4.69C9.24 2 7.85 0.750004 7.18 1C6.51 1.25 6.46 4.31 6.46 4.31L6.13 18.41C12.8113 17.506 19.548 17.0749 26.29 17.12Z" fill="#F06351"/>
<path d="M12.41 14C12.41 13.91 13.41 14.68 13.82 14.92C14.23 15.16 14.43 15.34 14.43 15.51C14.43 15.68 14.16 15.85 13.8 15.85C13.44 15.85 12.89 15.73 12.8 15.58H13.74H14.03C13.4207 15.1294 12.8757 14.5978 12.41 14Z" fill="black"/>
<path d="M19.89 14.11L18.8 15.44C18.8 15.5 18.63 15.79 18.98 15.74C19.3942 15.6783 19.8023 15.5812 20.2 15.45C20.31 15.45 20.27 15.26 20.09 15.28C19.91 15.3 19.4 15.33 19.09 15.39L19.93 14.13C19.93 14.13 20 14 19.89 14.11Z" fill="black"/>
<path d="M16.75 20.2C17.2135 19.9958 17.5967 19.6443 17.84 19.2C18.12 18.55 17.84 18.29 17.4 18.2C16.7979 18.0902 16.1765 18.2116 15.66 18.54C15.27 18.9 15.32 19.26 15.61 19.54C15.9613 19.8062 16.3442 20.0279 16.75 20.2Z" fill="black"/>
<path d="M16.35 21.45C16.2379 21.6785 16.0816 21.8825 15.89 22.05C15.6052 22.2791 15.2551 22.4122 14.89 22.43C14.3638 22.472 13.8406 22.3189 13.42 22C13.2222 21.8808 13.0436 21.7324 12.89 21.56C12.7895 21.4491 12.6669 21.3605 12.53 21.3C12.53 21.3 13.28 25.4 15.1 26.05C16.92 26.7 17.24 25.3 17.3 24.92C17.3601 23.7851 17.0742 22.6588 16.48 21.69C16.46 21.38 16.45 21.58 16.35 21.45Z" fill="#F06351"/>
<path d="M14.71 22.59C14.2453 22.5247 13.7989 22.3651 13.3982 22.1209C12.9975 21.8767 12.651 21.5531 12.38 21.17C12.3667 21.157 12.3561 21.1414 12.3489 21.1242C12.3417 21.1071 12.338 21.0886 12.338 21.07C12.338 21.0514 12.3417 21.0329 12.3489 21.0158C12.3561 20.9986 12.3667 20.983 12.38 20.97C12.393 20.9567 12.4086 20.9461 12.4258 20.9389C12.4429 20.9317 12.4614 20.928 12.48 20.928C12.4986 20.928 12.5171 20.9317 12.5342 20.9389C12.5514 20.9461 12.567 20.9567 12.58 20.97C13.0848 21.6642 13.843 22.1313 14.69 22.27C15.0217 22.245 15.3426 22.1413 15.6261 21.9674C15.9096 21.7934 16.1475 21.5544 16.32 21.27L16.46 21.08L16.56 21.29C16.56 21.29 16.93 22.05 17.56 22.09C18.19 22.13 18.61 21.68 19.17 20.81C19.183 20.7967 19.1986 20.7861 19.2158 20.7789C19.2329 20.7717 19.2514 20.768 19.27 20.768C19.2886 20.768 19.3071 20.7717 19.3242 20.7789C19.3414 20.7861 19.357 20.7967 19.37 20.81C19.4023 20.8306 19.4255 20.8629 19.4348 20.9C19.4441 20.9372 19.4388 20.9766 19.42 21.01C18.78 22.01 18.15 22.45 17.54 22.41C17.308 22.3763 17.0867 22.2903 16.8927 22.1587C16.6987 22.0271 16.5371 21.8531 16.42 21.65C16.2233 21.9245 15.9676 22.1514 15.6717 22.3141C15.3758 22.4767 15.0471 22.571 14.71 22.59Z" fill="black"/>
<path d="M26.24 18.92C24.4445 20.5437 22.7512 22.277 21.17 24.11C19.5986 25.9361 17.8238 27.5768 15.88 29C15.66 28.47 14.26 27.49 14.26 27.49C14.26 27.49 11.13 25.35 9.08 23.67C7.97414 22.7373 6.9287 21.7353 5.95 20.67L3.95 20.56C6.84018 24.7655 11.0702 27.8676 15.95 29.36C16.81 29.22 19.22 27.5 21.02 26.1C23.1389 24.2819 25.124 22.3134 26.96 20.21C27.4625 19.621 27.8493 18.9425 28.1 18.21C27 18.6 26.24 18.92 26.24 18.92Z" fill="#F06351"/>
</g>

</symbol><symbol id="logo-tablet" viewBox="0 0 174 52">
<g clip-path="url(#clip0)">
<path d="M37.4197 50.2336C37.7494 49.5876 38.1416 48.3084 38.5059 46.7952C38.8919 45.1915 39.2614 43.2605 39.5008 41.3909C39.5008 41.3903 39.5009 41.3897 39.501 41.3892L39.5522 41.0103L38.619 40.7017C37.9821 41.8553 37.1712 42.9017 36.2155 43.8034L36.0741 43.9367L36.0599 44.1306C35.9933 45.0417 35.7918 46.2195 35.5708 47.3915C35.5054 47.7386 35.4381 48.086 35.3725 48.4245C35.2202 49.2106 35.0771 49.9486 34.9885 50.524C34.9691 50.6339 34.9576 50.7449 34.9538 50.856C33.7667 51.0649 32.5641 51.1725 31.3591 51.1776C31.3029 50.3058 31.2538 49.4955 31.2172 48.8743C31.1957 48.5092 31.1785 48.2095 31.1667 48.0012L31.1531 47.7604L31.1496 47.6974L31.1487 47.6814L31.1485 47.6774L31.1484 47.6764L31.1484 47.6761L30.6492 47.7035L31.1484 47.676L31.1315 47.3684L30.8491 47.2452C29.4491 46.6346 28.1022 45.9067 26.8225 45.0694L25.8104 44.4072L26.0595 45.5908C26.4488 47.4408 26.8831 49.1984 27.3175 50.8181C23.8731 50.1782 20.6306 48.7003 17.8737 46.5074C14.9147 44.1538 12.6184 41.0587 11.2142 37.5302C9.8099 34.0018 9.34684 30.1634 9.87131 26.398C10.3958 22.6325 11.8894 19.0718 14.2028 16.0706C16.5162 13.0695 19.5686 10.7328 23.0555 9.29301C26.5423 7.85318 30.3421 7.36031 34.0763 7.86334C37.8105 8.36637 41.3492 9.84782 44.3397 12.1605C47.3302 14.4731 49.668 17.5363 51.1198 21.045C52.3186 23.9626 52.874 27.1084 52.7476 30.2643C52.6211 33.4206 51.8157 36.5112 50.3872 39.3218C48.9588 42.1325 46.9416 44.5957 44.4758 46.5411C42.3674 48.2045 39.9741 49.4552 37.4197 50.2336ZM50.6666 24.5033L50.8156 24.3564V24.2898C51.138 23.792 51.3844 23.2479 51.5462 22.6758L51.6003 22.4844L51.5082 22.3082C51.0289 21.3906 50.493 20.5041 49.9037 19.654C49.7737 19.4561 49.2616 18.8001 48.7723 18.179C48.473 17.7991 48.1739 17.4217 47.9473 17.1359C47.7924 16.9406 47.6715 16.7881 47.6075 16.7067C47.4877 16.5377 47.3288 16.4 47.144 16.3056C46.9541 16.2086 46.743 16.1605 46.5298 16.166L46.5226 16.1662L46.5154 16.1666C44.2853 16.2875 42.0932 16.7862 40.0305 17.6397V17.6397V17.6366V17.6334V17.6303V17.6272V17.6241V17.621V17.6179V17.6148V17.6117V17.6086V17.6055V17.6024V17.5993V17.5962V17.5931V17.59V17.5869V17.5838V17.5806V17.5775V17.5744V17.5713V17.5682V17.5651V17.562V17.5589V17.5558V17.5527V17.5496V17.5465V17.5434V17.5403V17.5372V17.5341V17.531V17.5279V17.5247V17.5216V17.5185V17.5154V17.5123V17.5092V17.5061V17.503V17.4999V17.4968V17.4937V17.4906V17.4875V17.4844V17.4813V17.4782V17.4751V17.4719V17.4688V17.4657V17.4626V17.4595V17.4564V17.4533V17.4502V17.4471V17.444V17.4409V17.4378V17.4347V17.4316V17.4285V17.4254V17.4223V17.4192V17.416V17.4129V17.4098V17.4067V17.4036V17.4005V17.3974V17.3943V17.3912V17.3881V17.385V17.3819V17.3788V17.3757V17.3726V17.3695V17.3664V17.3632V17.3601V17.357V17.3539V17.3508V17.3477V17.3446V17.3415V17.3384V17.3353V17.3322V17.3291V17.326V17.3229V17.3198V17.3167V17.3136V17.3105V17.3073V17.3042V17.3011V17.298V17.2949V17.2918V17.2887V17.2856V17.2825V17.2794V17.2763V17.2732V17.2701V17.267V17.2639V17.2608V17.2577V17.2546V17.2514V17.2483V17.2452V17.2421V17.239V17.2359V17.2328V17.2297V17.2266V17.2235V17.2204V17.2173V17.2142V17.2111V17.208V17.2049V17.2018V17.1986V17.1955V17.1924V17.1893V17.1862V17.1831V17.18V17.1769V17.1738V17.1707V17.1676V17.1645V17.1614V17.1583V17.1552V17.1521V17.149V17.1459V17.1427V17.1396V17.1365V17.1334V17.1303V17.1272V17.1241V17.121V17.1179V17.1148V17.1117V17.1086V17.1055V17.1024V17.0993V17.0962V17.0931V17.0899V17.0868V17.0837V17.0806V17.0775V17.0744V17.0713V17.0682V17.0651V17.062V17.0589V17.0558V17.0527V17.0496V17.0465V17.0434V17.0403V17.0372V17.034V17.0309V17.0278V17.0247V17.0216V17.0185V17.0154V17.0123V17.0092V17.0061V17.003V16.9999V16.9968V16.9937V16.9906V16.9875V16.9844V16.9812V16.9781V16.975V16.9719V16.9688V16.9657V16.9626V16.9595V16.9564V16.9533V16.9502V16.9471V16.944V16.9409V16.9378V16.9347V16.9316V16.9285V16.9253V16.9222V16.9191V16.916V16.9129V16.9098V16.9067V16.9036V16.9005V16.8974V16.8943V16.8912V16.8881V16.885V16.8819V16.8788V16.8757V16.8726V16.8694V16.8663V16.8632V16.8601V16.857V16.8539V16.8508V16.8477V16.8446V16.8415V16.8384V16.8353V16.8322V16.8291V16.826V16.8229V16.8198V16.8166V16.8135V16.3161L39.533 16.3135C33.6773 16.2841 27.827 16.6748 22.0262 17.4827L21.6046 17.5414L21.5953 17.967L21.5635 19.4229L21.2342 19.4049C20.7212 19.3767 20.0272 19.3382 19.3035 19.2969C17.85 19.2141 16.2935 19.1212 15.8262 19.0787C15.3026 19.0312 14.9427 19.0812 14.69 19.1875C14.5608 19.2419 14.4599 19.3111 14.3837 19.3875C14.355 19.4163 14.3308 19.4452 14.3104 19.4734C13.5787 20.2386 12.9629 21.1084 12.4829 22.0547C11.8517 23.1089 11.3169 24.2188 10.885 25.3706L10.8842 25.3728C10.597 26.15 10.4653 26.907 10.5181 27.501C10.5443 27.7953 10.6197 28.0946 10.7872 28.334C10.9697 28.5949 11.2522 28.7659 11.603 28.7659C11.6548 28.7659 11.7109 28.7662 11.7702 28.7665C12.0782 28.7682 12.4722 28.7704 12.7976 28.732C12.9869 28.7097 13.2128 28.6681 13.4012 28.5708C13.4994 28.5201 13.616 28.4398 13.7043 28.3116C13.7997 28.173 13.8405 28.0089 13.8232 27.8409L13.8204 27.814L13.8148 27.7876C13.7223 27.3555 13.5877 26.9336 13.4129 26.5283C13.4227 26.0009 13.5382 25.4807 13.7527 24.9992C13.9808 24.4872 14.3155 24.031 14.7336 23.6617L14.7357 23.6598C15.1272 23.3101 15.6092 23.0811 16.1246 22.9992C16.6401 22.9173 17.1681 22.9859 17.6465 23.197L17.6789 23.2113L17.7131 23.2209C18.2941 23.3842 19.3973 23.7745 20.3729 24.1313C20.8568 24.3082 21.3034 24.4747 21.629 24.597C21.7318 24.6356 21.8225 24.6697 21.8985 24.6984L24.0594 35.8683L24.1377 36.2733H24.2487L25.0394 40.9229L25.1221 41.4097L25.6099 41.333C27.8975 40.9734 30.1605 40.4702 32.3859 39.8262L39.4018 37.9419L39.7629 37.8449L39.7719 37.471C39.8462 34.3883 39.7695 30.6 39.7203 28.1725C39.701 27.2194 39.6859 26.476 39.6859 26.0675C39.6859 25.0685 39.7424 24.7067 39.8621 24.4563C39.9205 24.3341 40.0046 24.2177 40.1527 24.0504C40.2262 23.9673 40.31 23.8777 40.4112 23.7694L40.416 23.7643C40.5179 23.6553 40.6342 23.5307 40.7637 23.3867L40.7638 23.3867L40.7683 23.3816C41.3049 22.7681 42.649 21.704 43.9743 20.7784C44.629 20.3211 45.2617 19.9097 45.7641 19.617C46.0163 19.4701 46.2274 19.358 46.3876 19.2852C46.4447 19.2593 46.4911 19.2403 46.5274 19.2271C46.5309 19.2298 46.5347 19.2328 46.5386 19.236C46.6098 19.2936 46.7031 19.3872 46.8153 19.5185C47.0381 19.7791 47.2907 20.1346 47.5333 20.5032C47.774 20.8691 47.9968 21.2354 48.1599 21.5112C48.2413 21.6488 48.3075 21.7633 48.3532 21.8431C48.3578 21.8513 48.3623 21.8591 48.3665 21.8665C48.367 21.8748 48.3675 21.8835 48.368 21.8927C48.3734 21.9869 48.3819 22.1236 48.3945 22.2959C48.4197 22.6403 48.4612 23.1273 48.5267 23.7001C48.565 24.0345 48.6575 24.3269 48.8274 24.5521C49.0074 24.7908 49.2521 24.9233 49.5156 24.9553C49.9908 25.013 50.4252 24.7413 50.6666 24.5033Z" fill="#FDC305" stroke="black"/>
<path d="M50.3556 20.3326C53.6136 22.2313 56.5684 24.6191 59.1178 27.4152C57.3158 27.1767 55.8519 27.3356 54.6645 27.7589C53.1732 28.2905 52.1596 29.2242 51.4772 30.2249C50.7988 31.2199 50.4483 32.2795 50.2664 33.0817C50.2097 33.3317 50.169 33.5585 50.1398 33.753C48.6517 33.1383 47.4615 32.9524 46.5061 33.0775C45.3958 33.223 44.6535 33.7821 44.1764 34.4603C43.7184 35.1116 43.513 35.8585 43.4191 36.4275C43.3801 36.404 43.3407 36.3812 43.301 36.3591C42.9234 36.1482 42.4874 35.98 42.0394 35.8443C41.3055 35.6222 40.5038 35.4771 39.8015 35.3833C39.8151 32.8154 39.7593 30.0613 39.7206 28.1556C39.7014 27.2065 39.6864 26.4678 39.6864 26.0675C39.6864 25.0685 39.7428 24.7067 39.8625 24.4563C39.921 24.3341 40.0051 24.2177 40.1532 24.0504C40.2267 23.9673 40.3104 23.8777 40.4115 23.7696L40.4165 23.7643C40.5184 23.6553 40.6347 23.5307 40.7642 23.3867L40.7642 23.3867L40.7687 23.3816C41.3054 22.7681 42.6495 21.704 43.9747 20.7784C44.6295 20.3211 45.2622 19.9097 45.7646 19.617C46.0168 19.4701 46.2279 19.358 46.3881 19.2852C46.4452 19.2593 46.4916 19.2403 46.5278 19.2271C46.5314 19.2298 46.5351 19.2328 46.5391 19.236C46.6102 19.2936 46.7035 19.3872 46.8158 19.5185C47.0386 19.7791 47.2911 20.1346 47.5338 20.5032C47.7745 20.869 47.9973 21.2354 48.1604 21.5112C48.2418 21.6488 48.308 21.7633 48.3536 21.8431C48.3594 21.8532 48.3649 21.8628 48.37 21.8718L48.3719 21.8963C48.3789 21.9856 48.3895 22.1161 48.4042 22.2819C48.4336 22.6135 48.4792 23.087 48.5444 23.6566C48.5826 23.9911 48.6752 24.2835 48.8451 24.5087C49.0251 24.7473 49.2698 24.8798 49.5333 24.9118C50.0085 24.9695 50.4429 24.6978 50.6843 24.4598L50.7178 24.4268L50.7445 24.3882C51.1015 23.872 51.3745 23.3019 51.5534 22.6994L51.6111 22.5052L51.5173 22.3256C51.1609 21.6433 50.7732 20.9783 50.3556 20.3326Z" fill="#F06351" stroke="black"/>
<path d="M38.1682 2.34659C38.1682 2.34661 38.1677 2.34699 38.1667 2.34766L38.1682 2.34659ZM37.0712 5.78886C37.2201 4.75668 37.5028 3.74935 37.9117 2.79266C38.6851 7.25688 39.0718 11.7804 39.0675 16.312C33.5691 16.306 28.0765 16.6705 22.6263 17.403L22.897 5.68754L22.897 5.68743L22.897 5.68648L22.8971 5.68189L22.8978 5.66229C22.8984 5.64475 22.8993 5.61846 22.9008 5.58462C22.9037 5.51689 22.9085 5.41909 22.9159 5.30058C22.931 5.06269 22.9567 4.74539 22.9995 4.422C23.0427 4.09451 23.101 3.77983 23.1761 3.53929C23.213 3.42102 23.2489 3.33751 23.2793 3.28466C23.298 3.28962 23.3243 3.29883 23.3594 3.31575C23.4831 3.37527 23.6578 3.50648 23.8613 3.74183C24.2651 4.20896 24.7145 5.00879 25.0533 6.15465L25.1728 6.55912L25.5917 6.50942C29.2262 6.07813 32.8919 5.98006 36.544 6.21643L37.0052 6.24628L37.0712 5.78886ZM23.2421 3.27944C23.2421 3.27934 23.2431 3.27914 23.2455 3.27912C23.2433 3.27953 23.2421 3.27954 23.2421 3.27944Z" fill="#F06351" stroke="black"/>
<path d="M38.5801 40.7862C38.009 41.7983 37.303 42.7261 36.4825 43.5437L36.2773 43.6963C34.5058 45.014 32.6185 46.165 30.6392 47.1351C29.3747 46.5708 28.1544 45.9104 26.9889 45.1597V45.1293L26.9772 45.0762L26.134 41.2449C28.2445 40.8792 30.3325 40.3909 32.3874 39.7823L38.7525 38.0728C38.7178 39.1154 38.6643 40.0473 38.5801 40.7862Z" fill="#E55645" stroke="black"/>
<mask id="path-5-inside-1" fill="white">
<path d="M27.5657 14.0938C27.5227 14.0069 28.4271 14.6847 28.7803 14.8932C29.1334 15.1018 29.3057 15.2582 29.3057 15.4059C29.3057 15.5536 29.0818 15.7013 28.7717 15.7013C28.4616 15.7013 27.9792 15.5971 27.9103 15.4754C27.8414 15.3538 28.4271 15.4754 28.72 15.4754H28.9698C28.4395 15.084 27.9667 14.6189 27.5657 14.0938Z"/>
</mask>
<path d="M27.5657 14.0938C27.5227 14.0069 28.4271 14.6847 28.7803 14.8932C29.1334 15.1018 29.3057 15.2582 29.3057 15.4059C29.3057 15.5536 29.0818 15.7013 28.7717 15.7013C28.4616 15.7013 27.9792 15.5971 27.9103 15.4754C27.8414 15.3538 28.4271 15.4754 28.72 15.4754H28.9698C28.4395 15.084 27.9667 14.6189 27.5657 14.0938Z" fill="black"/>
<path d="M27.5657 14.0938L26.6698 14.5379L26.7125 14.6242L26.771 14.7008L27.5657 14.0938ZM28.9698 15.4754V16.4754H32.009L29.5636 14.6708L28.9698 15.4754ZM28.4617 13.6497C28.4818 13.6903 28.518 13.7698 28.5414 13.8769C28.563 13.976 28.5931 14.1858 28.504 14.4303C28.4 14.7156 28.1846 14.9108 27.9545 15.0079C27.7601 15.0899 27.5905 15.089 27.5128 15.0847C27.359 15.0761 27.2464 15.0325 27.2255 15.0246C27.1853 15.0095 27.1562 14.9953 27.1447 14.9895C27.1102 14.9723 27.101 14.9642 27.144 14.992C27.2113 15.0357 27.3169 15.1085 27.4526 15.2031C27.6944 15.3717 28.0531 15.6252 28.2718 15.7543L29.2887 14.0321C29.1542 13.9527 28.8841 13.7631 28.5963 13.5624C28.4671 13.4723 28.3325 13.379 28.2313 13.3135C28.1901 13.2867 28.1145 13.2383 28.0374 13.1998C28.0152 13.1888 27.977 13.1705 27.9292 13.1525C27.9007 13.1418 27.7821 13.0965 27.624 13.0877C27.5441 13.0833 27.3728 13.0826 27.177 13.1652C26.9456 13.2628 26.7293 13.4589 26.6249 13.7455C26.5353 13.9912 26.5654 14.2027 26.5874 14.3037C26.6113 14.4128 26.6483 14.4946 26.6698 14.5379L28.4617 13.6497ZM28.2718 15.7543C28.3449 15.7975 28.3981 15.8318 28.436 15.8585C28.4752 15.886 28.4871 15.8978 28.4833 15.8941C28.4813 15.8922 28.4422 15.8553 28.4008 15.7814C28.3559 15.7012 28.3057 15.5718 28.3057 15.4059H30.3057C30.3057 14.9238 30.0253 14.6018 29.8676 14.4506C29.6953 14.2854 29.4838 14.1473 29.2887 14.0321L28.2718 15.7543ZM28.3057 15.4059C28.3057 15.1819 28.3914 15.0141 28.4645 14.9162C28.536 14.8205 28.6097 14.7695 28.6503 14.7457C28.694 14.7201 28.7269 14.7099 28.7433 14.7058C28.761 14.7014 28.7704 14.7013 28.7717 14.7013V16.7013C29.0763 16.7013 29.3894 16.6303 29.6597 16.4723C29.8852 16.3405 30.3057 16.0002 30.3057 15.4059H28.3057ZM28.7717 14.7013C28.7462 14.7013 28.7019 14.6989 28.6447 14.6915C28.5888 14.6842 28.5341 14.6739 28.4892 14.6629C28.4389 14.6505 28.4256 14.6433 28.4406 14.6501C28.448 14.6534 28.4844 14.6699 28.5337 14.705C28.5595 14.7233 28.5965 14.7521 28.6375 14.7934C28.6779 14.8341 28.7315 14.8963 28.7804 14.9825L27.0402 15.9683C27.1497 16.1615 27.2942 16.2777 27.375 16.3351C27.4651 16.3992 27.5529 16.4438 27.6201 16.474C27.7546 16.5345 27.8942 16.5762 28.0119 16.6051C28.2463 16.6627 28.525 16.7013 28.7717 16.7013V14.7013ZM28.7804 14.9825C28.8356 15.08 28.9269 15.2833 28.8999 15.5544C28.8699 15.8557 28.7113 16.0774 28.5529 16.2092C28.4152 16.3238 28.2817 16.3699 28.2233 16.3876C28.1563 16.4078 28.104 16.4149 28.0803 16.4176C28.0159 16.425 27.996 16.4176 28.0926 16.426C28.1742 16.4331 28.2407 16.4413 28.3607 16.4533C28.4562 16.4629 28.5919 16.4754 28.72 16.4754V14.4754C28.6291 14.4754 28.5348 14.457 28.2663 14.4336C28.1885 14.4268 28.0167 14.4118 27.8528 14.4306C27.8159 14.4348 27.5296 14.4588 27.2736 14.6718C27.1053 14.8119 26.9408 15.0435 26.9097 15.3564C26.8816 15.639 26.9764 15.8556 27.0402 15.9683L28.7804 14.9825ZM28.72 16.4754H28.9698V14.4754H28.72V16.4754ZM29.5636 14.6708C29.1094 14.3356 28.7043 13.9371 28.3605 13.4869L26.771 14.7008C27.2292 15.3007 27.7695 15.8325 28.376 16.28L29.5636 14.6708Z" fill="black" mask="url(#path-5-inside-1)"/>
<path d="M34.0264 14.1894L34.0586 14.2144L34.0586 14.2144L34.0264 14.1894Z" fill="black" stroke="black"/>
<path d="M31.8528 18.2694C31.8472 18.3007 31.8349 18.3476 31.8089 18.4129C31.6874 18.628 31.5158 18.8081 31.3107 18.9385C31.0904 18.8239 30.881 18.6885 30.6855 18.534C30.6687 18.5204 30.6567 18.5088 30.6485 18.4999C30.6564 18.4876 30.6688 18.4708 30.6877 18.45C31.0183 18.2538 31.4075 18.1832 31.7854 18.2514C31.8139 18.2575 31.836 18.2637 31.8528 18.2694Z" fill="black" stroke="black"/>
<path d="M29.7908 21.9436C30.1926 21.9213 30.5775 21.7769 30.8954 21.5305C31.1806 22.1644 31.3136 22.8604 31.2797 23.5612C31.2595 23.6956 31.1938 23.9376 31.0421 24.0913C30.9735 24.1607 30.8832 24.2171 30.7472 24.239C30.6046 24.2621 30.3808 24.2519 30.046 24.1295C29.7962 24.0381 29.536 23.8061 29.2811 23.4293C29.0311 23.0597 28.8197 22.6004 28.6483 22.1378C28.5927 21.9878 28.542 21.8393 28.496 21.6957C28.893 21.8981 29.3415 21.9858 29.7908 21.9436Z" fill="#F06351" stroke="black"/>
<path d="M33.501 20.1062L33.5009 20.1057L33.501 20.1062Z" fill="black" stroke="black"/>
<path d="M33.9655 30.0211C33.9655 31.5486 32.739 32.7795 31.2353 32.7795C29.7315 32.7795 28.5051 31.5486 28.5051 30.0211C28.5051 28.4935 29.7315 27.2626 31.2353 27.2626C32.739 27.2626 33.9655 28.4935 33.9655 30.0211Z" fill="#FDC305" stroke="black"/>
<path d="M32.7233 25.8698L32.8883 25.6531L32.8343 25.92L32.7233 25.8698ZM29.9778 33.8232L30.0345 33.5424L30.1512 33.5953L29.9778 33.8232Z" fill="#111111" stroke="black"/>
<path d="M28.4095 28.4483C28.4095 28.7138 28.1973 28.9215 27.9447 28.9215C27.6921 28.9215 27.4799 28.7138 27.4799 28.4483C27.4799 28.1829 27.6921 27.9751 27.9447 27.9751C28.1973 27.9751 28.4095 28.1829 28.4095 28.4483Z" fill="#111111" stroke="black"/>
<path d="M33.7417 32.2629C33.7417 32.37 33.6568 32.4493 33.5612 32.4493C33.4656 32.4493 33.3807 32.37 33.3807 32.2629C33.3807 32.1558 33.4656 32.0764 33.5612 32.0764C33.6568 32.0764 33.7417 32.1558 33.7417 32.2629Z" fill="#111111" stroke="black"/>
<path d="M34.1897 30.7597C34.1897 30.6556 34.2745 30.5638 34.3882 30.5638C34.5019 30.5638 34.5867 30.6556 34.5867 30.7597C34.5867 30.8637 34.502 30.9555 34.3882 30.9555C34.2745 30.9555 34.1897 30.8637 34.1897 30.7597Z" fill="#111111" stroke="black"/>
<path d="M35.5176 23.2384L35.5182 23.2378C36.8524 21.673 38.2824 20.1941 39.7999 18.8098C39.8103 18.8052 39.8218 18.8002 39.8344 18.7946C39.9036 18.7645 40.0063 18.7206 40.1389 18.6667C40.0244 18.8464 39.8985 19.0189 39.7618 19.1831C38.1846 20.9971 36.4784 22.6926 34.6566 24.256C34.5882 24.3097 34.5188 24.364 34.4486 24.4186C34.8157 24.0357 35.1722 23.6421 35.5176 23.2384ZM28.867 26.256L28.8723 26.2597L28.8727 26.26L28.8731 26.2602L28.8817 26.2664L28.9179 26.2925C28.9496 26.3156 28.9956 26.3494 29.0516 26.3915C29.0607 26.3983 29.0699 26.4053 29.0794 26.4125C25.999 25.1273 23.3028 23.0442 21.2682 20.3684L21.7433 20.3948C22.5607 21.2844 23.4342 22.1201 24.3583 22.8965L24.3583 22.8965L24.3612 22.8988C25.2611 23.6436 26.3914 24.4853 27.2918 25.1375C27.743 25.4644 28.1384 25.7452 28.4211 25.9442C28.5625 26.0438 28.6758 26.123 28.7538 26.1774L28.8436 26.2398L28.867 26.256Z" fill="#F06351" stroke="black"/>
<path d="M17.6469 22.9006L17.6794 22.9149L17.7135 22.9245C18.2946 23.0878 19.3978 23.4781 20.3734 23.8349C20.8573 24.0118 21.3038 24.1783 21.6294 24.3006C21.7337 24.3397 21.8255 24.3743 21.9022 24.4033L24.0623 34.9613C22.8086 34.9849 21.5907 35.4236 20.6016 36.219C20.0325 36.6386 19.4914 37.0947 18.9815 37.5846L18.6647 35.257L18.6633 35.2415C18.6614 35.2217 18.6584 35.1948 18.6541 35.1618C18.6453 35.0961 18.6308 35.0053 18.6068 34.898C18.5595 34.6858 18.4727 34.3962 18.3132 34.1049C18.153 33.8126 17.9119 33.5051 17.5518 33.2814C17.1865 33.0546 16.7305 32.9341 16.1789 32.9708L16.1652 32.9717L16.1516 32.9734C14.6914 33.1515 13.2445 33.4255 11.8201 33.7937C11.8201 33.7933 11.82 33.7929 11.8199 33.7924C11.7634 33.4063 11.635 32.8837 11.3456 32.3423C10.7517 31.2312 9.52475 30.1265 7.11037 29.8794C5.31956 29.664 3.51701 29.5711 1.71507 29.6011C2.55195 29.0339 3.69429 28.2668 4.97435 27.4274C7.08961 26.0403 9.56933 24.4633 11.6665 23.2627C11.3773 23.8531 11.1167 24.4576 10.8855 25.0742L10.8846 25.0764C10.5974 25.8536 10.4657 26.6106 10.5186 27.2046C10.5447 27.4989 10.6202 27.7982 10.7877 28.0376C10.9702 28.2985 11.2526 28.4695 11.6034 28.4695C11.6553 28.4695 11.7114 28.4698 11.7707 28.4701C12.0787 28.4718 12.4727 28.474 12.798 28.4356C12.9874 28.4133 13.2133 28.3717 13.4017 28.2744C13.4998 28.2237 13.6164 28.1434 13.7047 28.0152C13.8002 27.8766 13.841 27.7125 13.8237 27.5445L13.8209 27.5176L13.8152 27.4912C13.7228 27.0591 13.5882 26.6372 13.4134 26.2319C13.4232 25.7045 13.5387 25.1843 13.7531 24.7028L13.2964 24.4994L13.7532 24.7028C13.9813 24.1908 14.3159 23.7346 14.7341 23.3653L14.7341 23.3653L14.7362 23.3634C15.1276 23.0137 15.6096 22.7847 16.1251 22.7028C16.6405 22.6209 17.1686 22.6895 17.6469 22.9006Z" fill="#F06351" stroke="black"/>
<path d="M73.7899 36.4945C72.9025 35.1681 72.4782 33.5814 72.584 31.9848V25.468C72.472 23.8596 72.8899 22.2589 73.7727 20.9148C74.5709 19.8779 75.9348 19.3624 77.8643 19.3682C79.7938 19.374 81.1002 19.8287 81.7836 20.7324C82.6168 21.8522 83.0234 23.2368 82.9292 24.6338V26.1631H79.3631V24.5035C79.3583 24.0668 79.3208 23.6311 79.2511 23.2001C79.208 22.8881 79.066 22.5985 78.8462 22.3746C78.7106 22.2573 78.5531 22.1684 78.3831 22.1132C78.213 22.058 78.0337 22.0376 77.8557 22.0531C77.6 22.0146 77.3388 22.0565 77.1076 22.1731C76.8764 22.2898 76.6864 22.4754 76.5636 22.7048C76.3371 23.315 76.2374 23.9657 76.2707 24.6164V32.8885C76.2314 33.5435 76.3465 34.1986 76.6066 34.8001C76.7309 35.0171 76.9153 35.1927 77.1372 35.3054C77.3591 35.4181 77.6088 35.463 77.8557 35.4344C78.0982 35.469 78.3454 35.4255 78.5619 35.31C78.7785 35.1946 78.9533 35.0131 79.0616 34.7914C79.27 34.1801 79.3606 33.5342 79.3286 32.8885V31.1507H82.8948V32.6539C82.9997 34.0715 82.6263 35.4832 81.8353 36.6596C81.0772 37.6154 79.7679 38.0846 77.9073 38.0846C76.0467 38.0846 74.591 37.5633 73.7899 36.4945Z" fill="#111111"/>
<path d="M87.788 19.6201H91.871L95.3166 37.8674H91.9227L91.3111 33.8356H88.4513L87.7622 37.8413H84.3167L87.788 19.6201ZM90.9321 31.5417L89.8468 24.208L88.77 31.5417H90.9321Z" fill="#111111"/>
<path d="M97.9615 22.3659H95.1707V19.6201H104.405V22.3659H101.648V37.8413H97.9529L97.9615 22.3659Z" fill="#111111"/>
<path d="M111.65 19.6201H118.653V21.5144H114.174V27.536H117.809V29.3346H114.174V36.0166H118.696V37.8413H111.65V19.6201Z" fill="#444444"/>
<path d="M120.729 19.6201H122.452L127.62 31.7241V19.6201H129.722V37.8674H128.111L122.943 25.4245V37.8413H120.807L120.729 19.6201Z" fill="#444444"/>
<path d="M132.505 19.6201H139.499V21.5144H135.02V27.536H138.69V29.3346H135.055V36.0166H139.551V37.8413H132.505V19.6201Z" fill="#444444"/>
<path d="M141.576 19.6201H145.211C146.643 19.5039 148.07 19.9075 149.234 20.7584C150.095 21.5144 150.517 22.7482 150.517 24.46C150.517 26.7771 149.773 28.1935 148.286 28.709L150.87 37.8413H148.424L146.055 29.2912H144.1V37.8413H141.576V19.6201ZM145.021 27.4404C145.851 27.5214 146.681 27.2858 147.347 26.78C147.618 26.4569 147.82 26.0812 147.942 25.6763C148.063 25.2713 148.101 24.8456 148.053 24.4253C148.071 23.8357 147.986 23.2477 147.804 22.6874C147.73 22.4808 147.615 22.2913 147.467 22.1301C147.319 21.969 147.141 21.8393 146.942 21.749C146.383 21.5176 145.78 21.4137 145.176 21.4449H144.065V27.4751L145.021 27.4404Z" fill="#444444"/>
<path d="M153.911 36.4945C153.088 35.0926 152.707 33.4714 152.817 31.8458V25.7634C152.788 24.5896 152.933 23.418 153.248 22.2877C153.497 21.438 154.026 20.6992 154.747 20.1936C155.618 19.6642 156.626 19.41 157.641 19.4637C158.298 19.4007 158.961 19.4832 159.582 19.7053C160.204 19.9274 160.771 20.2839 161.242 20.7497C162.068 21.9176 162.459 23.3426 162.344 24.7728V25.4506H159.976V24.8858C159.992 24.2103 159.94 23.5348 159.821 22.8699C159.742 22.4437 159.509 22.0626 159.166 21.8011C158.719 21.5349 158.202 21.4108 157.684 21.4449C157.122 21.3963 156.562 21.5709 156.125 21.9315C155.768 22.2734 155.534 22.7261 155.462 23.2175C155.353 23.9332 155.304 24.657 155.315 25.3811V32.1499C155.247 33.1785 155.421 34.2088 155.824 35.1564C156.057 35.4478 156.354 35.6814 156.691 35.8395C157.028 35.9975 157.396 36.0757 157.768 36.0682C158.139 36.0606 158.504 35.9675 158.835 35.7959C159.165 35.6243 159.452 35.3788 159.674 35.0782C160.089 34.076 160.269 32.9905 160.2 31.9066V30.6206H157.908V28.822H162.474V37.8413H160.914L160.665 35.7472C160.467 36.4429 160.042 37.0508 159.459 37.472C158.876 37.8933 158.168 38.103 157.452 38.0672C156.778 38.1272 156.1 38.0144 155.481 37.7395C154.862 37.4645 154.322 37.0363 153.911 36.4945Z" fill="#444444"/>
<path d="M167.711 31.4113L163.809 19.6201H166.152L168.917 28.4136L171.639 19.6201H174.008L170.132 31.4113V37.8413H167.72L167.711 31.4113Z" fill="#444444"/>
</g>

</symbol></svg>